<svg width="32" height="32" viewBox="0 0 32 32" fill="none" xmlns="http://www.w3.org/2000/svg">
    <path fill-rule="evenodd" clip-rule="evenodd" d="M6.66663 24V12H14.6666V24H6.66663ZM12 14.6667V21.3333H9.33329V14.6667H12Z" fill="white"/>
    <path fill-rule="evenodd" clip-rule="evenodd" d="M17.3333 24V12H25.3333V24H17.3333ZM22.6666 14.6667V21.3333H20V14.6667H22.6666Z" fill="white"/>
    <path fill-rule="evenodd" clip-rule="evenodd" d="M25.3333 24H6.66663C5.93025 24 5.33329 24.597 5.33329 25.3334C5.33329 26.0698 5.93025 26.6667 6.66663 26.6667H25.3333C26.0697 26.6667 26.6666 26.0698 26.6666 25.3334C26.6666 24.597 26.0697 24 25.3333 24ZM6.66663 21.3334C4.45749 21.3334 2.66663 23.1242 2.66663 25.3334C2.66663 27.5425 4.45749 29.3334 6.66663 29.3334H25.3333C27.5424 29.3334 29.3333 27.5425 29.3333 25.3334C29.3333 23.1242 27.5424 21.3334 25.3333 21.3334H6.66663Z" fill="white"/>
    <path fill-rule="evenodd" clip-rule="evenodd" d="M26.6666 10.6667V9.64277C26.6666 9.05396 26.2804 8.53486 25.7164 8.36567L16.3831 5.56567C16.1332 5.4907 15.8667 5.4907 15.6168 5.56567L6.2835 8.36567C5.71952 8.53486 5.33329 9.05396 5.33329 9.64277V10.6667C5.33329 11.403 5.93025 12 6.66663 12H25.3333C26.0697 12 26.6666 11.403 26.6666 10.6667ZM5.51723 5.81147C3.8253 6.31905 2.66663 7.87634 2.66663 9.64277V10.6667C2.66663 12.8758 4.45749 14.6667 6.66663 14.6667H25.3333C27.5424 14.6667 29.3333 12.8758 29.3333 10.6667V9.64277C29.3333 7.87634 28.1746 6.31905 26.4827 5.81147L17.1493 3.01147C16.3996 2.78654 15.6003 2.78654 14.8506 3.01147L5.51723 5.81147Z" fill="white"/>
</svg>
