<svg width="22" height="37" viewBox="0 0 22 37" fill="none" xmlns="http://www.w3.org/2000/svg">
    <path d="M7.66667 32.5C7.66667 32.0359 7.84226 31.5908 8.15482 31.2626C8.46738 30.9344 8.89131 30.75 9.33333 30.75H12.6667C13.1087 30.75 13.5326 30.9344 13.8452 31.2626C14.1577 31.5908 14.3333 32.0359 14.3333 32.5V34.25C14.3333 34.7141 14.1577 35.1592 13.8452 35.4874C13.5326 35.8156 13.1087 36 12.6667 36H9.33333C8.89131 36 8.46738 35.8156 8.15482 35.4874C7.84226 35.1592 7.66667 34.7141 7.66667 34.25V32.5ZM11 25.5C16.5233 25.5 21 17.2995 21 11.5C21 8.71523 19.9464 6.04451 18.0711 4.07538C16.1957 2.10625 13.6522 1 11 1C8.34783 1 5.8043 2.10625 3.92893 4.07538C2.05357 6.04451 1 8.71523 1 11.5C1 17.2995 5.47667 25.5 11 25.5Z" stroke="#000113" stroke-width="2" stroke-linecap="round" stroke-linejoin="round"/>
    <path d="M7.66675 13.25C7.66675 16.4989 8.01794 19.6147 8.64306 21.9121C9.26818 24.2094 10.116 25.5 11.0001 25.5C11.8841 25.5 12.732 24.2094 13.3571 21.9121C13.9822 19.6147 14.3334 16.4989 14.3334 13.25C14.3334 10.0011 13.9822 6.88526 13.3571 4.58794C12.732 2.29062 11.8841 1 11.0001 1C10.116 1 9.26818 2.29062 8.64306 4.58794C8.01794 6.88526 7.66675 10.0011 7.66675 13.25Z" stroke="#000113" stroke-width="2" stroke-linecap="round" stroke-linejoin="round"/>
</svg>
