<svg width="32" height="32" viewBox="0 0 32 32" fill="none" xmlns="http://www.w3.org/2000/svg">
    <path fill-rule="evenodd" clip-rule="evenodd" d="M12 26.6666C15.6819 26.6666 18.6666 23.6819 18.6666 20C18.6666 16.3181 15.6819 13.3333 12 13.3333C8.31806 13.3333 5.33329 16.3181 5.33329 20C5.33329 23.6819 8.31806 26.6666 12 26.6666ZM12 29.3333C17.1546 29.3333 21.3333 25.1546 21.3333 20C21.3333 14.8453 17.1546 10.6666 12 10.6666C6.8453 10.6666 2.66663 14.8453 2.66663 20C2.66663 25.1546 6.8453 29.3333 12 29.3333Z" fill="white"/>
    <path fill-rule="evenodd" clip-rule="evenodd" d="M20 5.33329C18.0257 5.33329 16.2532 6.18983 15.0306 7.55584C14.5395 8.10455 13.6966 8.15124 13.1479 7.66014C12.5992 7.16904 12.5525 6.32611 13.0436 5.77741C14.7507 3.8701 17.2357 2.66663 20 2.66663C25.1547 2.66663 29.3334 6.8453 29.3334 12C29.3334 14.7643 28.1299 17.2493 26.2226 18.9564C25.6739 19.4475 24.831 19.4008 24.3399 18.8521C23.8488 18.3034 23.8954 17.4605 24.4441 16.9694C25.8102 15.7468 26.6667 13.9743 26.6667 12C26.6667 8.31806 23.6819 5.33329 20 5.33329Z" fill="white"/>
</svg>
