<svg width="32" height="32" viewBox="0 0 32 32" fill="none" xmlns="http://www.w3.org/2000/svg">
    <path fill-rule="evenodd" clip-rule="evenodd" d="M24 9.33335H8C7.26362 9.33335 6.66667 9.93031 6.66667 10.6667V26.6667C6.66667 27.4031 7.26362 28 8 28H24C24.7364 28 25.3333 27.4031 25.3333 26.6667V10.6667C25.3333 9.93031 24.7364 9.33335 24 9.33335ZM8 6.66669C5.79086 6.66669 4 8.45755 4 10.6667V26.6667C4 28.8758 5.79086 30.6667 8 30.6667H24C26.2091 30.6667 28 28.8758 28 26.6667V10.6667C28 8.45755 26.2091 6.66669 24 6.66669H8Z" fill="#000113"/>
    <path d="M8 2.66665C8 3.40303 8.59695 3.99998 9.33333 3.99998H22.6667C23.403 3.99998 24 3.40303 24 2.66665C24 1.93027 23.403 1.33331 22.6667 1.33331H9.33333C8.59695 1.33331 8 1.93027 8 2.66665Z" fill="#000113"/>
    <path d="M15.4062 14.7152L19.6692 17.5572C20.4608 18.085 20.4608 19.2483 19.6692 19.776L15.4062 22.618C14.5201 23.2087 13.3333 22.5735 13.3333 21.5086L13.3333 15.8247C13.3333 14.7597 14.5201 14.1245 15.4062 14.7152Z" fill="#000113"/>
</svg>
