<svg width="32" height="32" viewBox="0 0 32 32" fill="none" xmlns="http://www.w3.org/2000/svg">
    <path fill-rule="evenodd" clip-rule="evenodd" d="M4 6.66671C4 3.72119 6.38781 1.33337 9.33333 1.33337L20.4575 1.33337C21.872 1.33337 23.2286 1.89528 24.2288 2.89547L26.4379 5.10461C27.4381 6.10481 28 7.46136 28 8.87585V25.3334C28 28.2789 25.6122 30.6667 22.6667 30.6667H9.33333C6.38781 30.6667 4 28.2789 4 25.3334V6.66671ZM25.3333 10.6667V25.3334C25.3333 26.8061 24.1394 28 22.6667 28H9.33333C7.86057 28 6.66667 26.8061 6.66667 25.3334V6.66671C6.66667 5.19395 7.86057 4.00004 9.33333 4.00004H18.6667V6.66671C18.6667 8.87585 20.4575 10.6667 22.6667 10.6667H25.3333ZM25.1854 8.00004C25.0545 7.6235 24.8395 7.27747 24.5523 6.99023L22.3431 4.78109C22.0559 4.49384 21.7099 4.2789 21.3333 4.14796V6.66671C21.3333 7.40309 21.9303 8.00004 22.6667 8.00004H25.1854Z" fill="white"/>
    <path d="M14.6667 16C14.6667 15.2636 15.2637 14.6666 16 14.6666C16.7364 14.6666 17.3334 15.2636 17.3334 16V22.6666C17.3334 23.403 16.7364 24 16 24C15.2637 24 14.6667 23.403 14.6667 22.6666V16Z" fill="white"/>
    <path d="M9.33337 20C9.33337 19.2636 9.93033 18.6666 10.6667 18.6666C11.4031 18.6666 12 19.2636 12 20V22.6666C12 23.403 11.4031 24 10.6667 24C9.93033 24 9.33337 23.403 9.33337 22.6666V20Z" fill="white"/>
    <path d="M21.3334 17.3333C20.597 17.3333 20 17.9302 20 18.6666V22.6666C20 23.403 20.597 24 21.3334 24C22.0698 24 22.6667 23.403 22.6667 22.6666V18.6666C22.6667 17.9302 22.0698 17.3333 21.3334 17.3333Z" fill="white"/>
</svg>
